# xmcd
#
# Track frame offsets: 
#        150
#        22355
#        37774
#        51901
#        66372
#        77415
#        96367
#        110690
#        123969
#        133308
#
# Disc length: 1928 seconds
#
# Revision: 0
# Processed by: cddbd v1.5.2PL0 Copyright (c) Steve Scherf et al.
# Submitted via: ExactAudioCopy v0.95b4
#
DISCID=8c07860a
DTITLE=Various Artist - Best of Soul R&B
DYEAR=2007
DGENRE=R&B
TTITLE0=Marvin Gaye-How Sweet It Iis To Be Loved By You
TTITLE1=Al Wilson-Show and Tell
TTITLE2=The Spinners-I'll Be Around
TTITLE3=The Stylistics-You Are Everything
TTITLE4=Brook Benton-It's Just a Matter of Time
TTITLE5=James Brown-It's a Man's Man's Man's World
TTITLE6=The Spinners-It's a Shame
TTITLE7=The Coasters-Poison Ivy
TTITLE8=The Crystals-Da Doo Ron Ron
TTITLE9=The Drifters-Up On The Roof
EXTD=
EXTT0=
EXTT1=
EXTT2=
EXTT3=
EXTT4=
EXTT5=
EXTT6=
EXTT7=
EXTT8=
EXTT9=
PLAYORDER=
